<svg width="66" height="17" viewBox="0 0 66 17" fill="none" xmlns="http://www.w3.org/2000/svg">
<path d="M0 2C0 0.89543 0.895431 0 2 0H64C65.1046 0 66 0.895431 66 2V15C66 16.1046 65.1046 17 64 17H2C0.895429 17 0 16.1046 0 15V2Z" fill="url(#paint0_linear)"/>
<path d="M10.75 7.37C10.5233 7.08333 10.2533 6.85667 9.94 6.69C9.62667 6.51667 9.31667 6.43 9.01 6.43C8.65667 6.43 8.33333 6.52 8.04 6.7C7.75333 6.87333 7.52667 7.11667 7.36 7.43C7.19333 7.73667 7.11 8.08 7.11 8.46C7.11 8.84 7.19333 9.18667 7.36 9.5C7.52667 9.80667 7.75333 10.05 8.04 10.23C8.33333 10.4033 8.65667 10.49 9.01 10.49C9.29667 10.49 9.59667 10.4167 9.91 10.27C10.2233 10.1233 10.5033 9.92333 10.75 9.67L11.82 10.82C11.44 11.22 10.9867 11.54 10.46 11.78C9.94 12.0133 9.42333 12.13 8.91 12.13C8.21667 12.13 7.59 11.97 7.03 11.65C6.47 11.33 6.03 10.8933 5.71 10.34C5.39 9.78667 5.23 9.16667 5.23 8.48C5.23 7.8 5.39333 7.18667 5.72 6.64C6.04667 6.09333 6.49333 5.66333 7.06 5.35C7.63333 5.03667 8.27333 4.88 8.98 4.88C9.5 4.88 10.0133 4.99 10.52 5.21C11.0267 5.42333 11.4567 5.71667 11.81 6.09L10.75 7.37ZM17.6757 12L17.1957 10.76H14.1657L13.6757 12H11.7957L14.8057 4.99H16.6857L19.6257 12H17.6757ZM14.7157 9.36H16.6557L15.6957 6.86L14.7157 9.36ZM18.8981 4.99H24.9081V6.5H22.8081V12H20.9781V6.5H18.8981V4.99ZM25.6507 4.99H31.1807V6.45H27.4807V7.76H30.8207V9.21L27.4807 9.22V10.54H31.2807V12H25.6507V4.99ZM37.0388 8.42H38.6187V11.21C38.2454 11.4833 37.7854 11.7067 37.2387 11.88C36.6987 12.0467 36.1854 12.13 35.6988 12.13C34.9921 12.13 34.3521 11.9733 33.7788 11.66C33.2121 11.34 32.7654 10.9033 32.4387 10.35C32.1121 9.79667 31.9488 9.17667 31.9488 8.49C31.9488 7.81 32.1154 7.19667 32.4487 6.65C32.7888 6.09667 33.2521 5.66333 33.8387 5.35C34.4321 5.03667 35.0921 4.88 35.8187 4.88C36.3388 4.88 36.8587 4.97667 37.3787 5.17C37.8987 5.35667 38.3388 5.61 38.6988 5.93L37.6587 7.21C37.4054 6.97 37.1121 6.78 36.7787 6.64C36.4521 6.5 36.1288 6.43 35.8088 6.43C35.4354 6.43 35.0987 6.52 34.7987 6.7C34.4987 6.88 34.2621 7.12667 34.0888 7.44C33.9154 7.75333 33.8287 8.10333 33.8287 8.49C33.8287 8.88333 33.9154 9.24 34.0888 9.56C34.2621 9.87333 34.5021 10.12 34.8087 10.3C35.1154 10.48 35.4554 10.57 35.8288 10.57C36.1821 10.57 36.5854 10.4567 37.0388 10.23V8.42ZM43.1704 4.88C43.8837 4.88 44.5271 5.03667 45.1004 5.35C45.6804 5.66333 46.1337 6.09333 46.4604 6.64C46.7937 7.18667 46.9604 7.8 46.9604 8.48C46.9604 9.16667 46.7937 9.78667 46.4604 10.34C46.1337 10.8933 45.6804 11.33 45.1004 11.65C44.5271 11.97 43.8837 12.13 43.1704 12.13C42.4571 12.13 41.8104 11.9733 41.2304 11.66C40.6571 11.34 40.2037 10.9033 39.8704 10.35C39.5437 9.79 39.3804 9.16667 39.3804 8.48C39.3804 7.8 39.5437 7.18667 39.8704 6.64C40.2037 6.09333 40.6571 5.66333 41.2304 5.35C41.8104 5.03667 42.4571 4.88 43.1704 4.88ZM43.1904 6.43C42.8437 6.43 42.5204 6.52 42.2204 6.7C41.9271 6.88 41.6937 7.13 41.5204 7.45C41.3471 7.76333 41.2604 8.11 41.2604 8.49C41.2604 8.87667 41.3471 9.23 41.5204 9.55C41.7004 9.86333 41.9371 10.1133 42.2304 10.3C42.5237 10.48 42.8437 10.57 43.1904 10.57C43.5371 10.57 43.8537 10.48 44.1404 10.3C44.4337 10.1133 44.6637 9.86333 44.8304 9.55C44.9971 9.23 45.0804 8.87667 45.0804 8.49C45.0804 8.11 44.9971 7.76333 44.8304 7.45C44.6637 7.13 44.4337 6.88 44.1404 6.7C43.8537 6.52 43.5371 6.43 43.1904 6.43ZM52.0775 12L51.0575 10.06H51.0175H49.6975V12H47.8675V4.99H51.0175C51.9442 4.99 52.6608 5.20667 53.1675 5.64C53.6808 6.06667 53.9375 6.67 53.9375 7.45C53.9375 7.97667 53.8308 8.43333 53.6175 8.82C53.4042 9.2 53.0942 9.49667 52.6875 9.71L54.1475 12H52.0775ZM49.6975 8.6H51.0275C51.4008 8.6 51.6875 8.50667 51.8875 8.32C52.0942 8.13333 52.1975 7.86333 52.1975 7.51C52.1975 7.17 52.0942 6.91 51.8875 6.73C51.6875 6.54333 51.4008 6.45 51.0275 6.45H49.6975V8.6ZM61.2552 4.99L58.7252 9.76V12H56.8952V9.81L54.3152 4.99H56.1452L57.8052 8L59.4252 4.99H61.2552Z" fill="white"/>
<defs>
<linearGradient id="paint0_linear" x1="-13.8947" y1="8.49999" x2="79.8947" y2="8.5" gradientUnits="userSpaceOnUse">
<stop stop-color="#F27A54"/>
<stop offset="1" stop-color="#A154F2"/>
</linearGradient>
</defs>
</svg>
